<?xml version="1.0" encoding="UTF-8" standalone="no"?>
<!-- Generator: Adobe Illustrator 10.0, SVG Export Plug-In . SVG Version: 3.0.0 Build 76)  -->

<svg
   xmlns:ns0="http://ns.adobe.com/SaveForWeb/1.0/"
   xmlns:ns="http://ns.adobe.com/Variables/1.0/"
   xmlns:i="http://ns.adobe.com/AdobeIllustrator/10.0/"
   xmlns:dc="http://purl.org/dc/elements/1.1/"
   xmlns:cc="http://creativecommons.org/ns#"
   xmlns:rdf="http://www.w3.org/1999/02/22-rdf-syntax-ns#"
   xmlns:svg="http://www.w3.org/2000/svg"
   xmlns="http://www.w3.org/2000/svg"
   xmlns:sodipodi="http://sodipodi.sourceforge.net/DTD/sodipodi-0.dtd"
   xmlns:inkscape="http://www.inkscape.org/namespaces/inkscape"
   i:viewOrigin="209 492"
   i:rulerOrigin="0 0"
   i:pageBounds="0 792 612 0"
   width="99.335999"
   height="99.335999"
   viewBox="0 0 99.336 99.336"
   overflow="visible"
   enable-background="new 0 0 192.756 192.756"
   xml:space="preserve"
   id="svg2"
   version="1.1"
   inkscape:version="0.48.1 r9760"
   sodipodi:docname="panda.svg"
   style="overflow:visible"><defs
   id="defs45" /><sodipodi:namedview
   pagecolor="#ffffff"
   bordercolor="#666666"
   borderopacity="0"
   objecttolerance="10"
   gridtolerance="10"
   guidetolerance="10"
   inkscape:pageopacity="0"
   inkscape:pageshadow="2"
   inkscape:window-width="1076"
   inkscape:window-height="677"
   id="namedview43"
   showgrid="false"
   fit-margin-top="0"
   fit-margin-left="0"
   fit-margin-right="0"
   fit-margin-bottom="0"
   inkscape:zoom="1.6837972"
   inkscape:cx="49.667999"
   inkscape:cy="49.666999"
   inkscape:window-x="0"
   inkscape:window-y="0"
   inkscape:window-maximized="0"
   inkscape:current-layer="svg2"
   inkscape:showpageshadow="true"
   borderlayer="false" />
	<metadata
   id="metadata4">
		<ns:variableSets>
			<ns:variableSet
   varSetName="binding1"
   locked="none">
				<ns:variables />
				<ns:sampleDataSets />
			</ns:variableSet>
		</ns:variableSets>
		<ns0:sfw>
			<ns0:slices />
			<ns0:sliceSourceBounds
   y="299.244"
   x="209"
   width="192.756"
   height="192.756"
   bottomLeftOrigin="true" />
		</ns0:sfw>
	<rdf:RDF><cc:Work
     rdf:about=""><dc:format>image/svg+xml</dc:format><dc:type
       rdf:resource="http://purl.org/dc/dcmitype/StillImage" /><dc:title></dc:title></cc:Work></rdf:RDF></metadata>
	<g
   id="Layer_1"
   i:layer="yes"
   i:dimmedPercent="50"
   i:rgbTrio="#4F008000FFFF"
   transform="translate(-46.71,-46.709)">
		<g
   id="g7">
			
			
			<path
   i:knockout="Off"
   clip-rule="evenodd"
   d="m 96.378,46.709 c 27.365,0 49.668,22.304 49.668,49.668 0,27.365 -22.303,49.668 -49.668,49.668 C 69.013,146.045 46.71,123.742 46.71,96.377 46.709,69.013 69.013,46.709 96.378,46.709 z"
   id="path13"
   inkscape:connector-curvature="0"
   style="fill:#cccccc;fill-opacity:1;fill-rule:evenodd" />
			
			<path
   i:knockout="Off"
   clip-rule="evenodd"
   d="m 103.015,69.118 c 0.42,-1.575 1.995,-4.054 3.149,-5.062 1.639,-1.449 4.39,-2.457 6.574,-2.1 2.415,0.399 4.536,1.68 5.733,3.738 2.079,3.486 0.21,6.426 -1.029,9.703 -0.357,0.882 -0.441,1.869 -0.903,2.688 -0.273,0.483 -1.05,0.126 -1.428,0.294 -2.079,1.008 -3.802,0.672 -6.405,-1.113 -1.911,-1.302 -6.301,-5.733 -5.691,-8.148 z"
   id="path17"
   inkscape:connector-curvature="0"
   style="fill-rule:evenodd" />
			<path
   i:knockout="Off"
   clip-rule="evenodd"
   d="m 103.771,64.96 c -4.894,-1.975 -11.11,-2.205 -16.15,-0.693 -6.048,1.827 -10.962,6.07 -14.575,11.131 -3.381,4.768 -4.537,9.682 -3.654,15.457 0.945,6.216 5.125,11.362 9.451,15.667 2.751,2.73 6.321,4.978 10.144,5.713 2.919,0.546 4.872,-0.315 7.498,-1.471 2.583,-1.154 5.25,-2.184 7.666,-3.654 5.334,-3.234 8.904,-6.657 11.824,-12.202 1.533,-2.898 2.289,-6.027 1.785,-9.262 -0.315,-1.974 -0.819,-3.906 -1.387,-5.817 -0.146,-0.504 -0.314,-0.987 -0.482,-1.471 -0.294,-0.021 -0.588,-0.063 -0.777,0.021 -2.079,1.008 -3.802,0.672 -6.405,-1.113 -1.911,-1.302 -6.301,-5.733 -5.691,-8.148 0.272,-1.05 1.071,-2.499 1.89,-3.654 -0.361,-0.168 -0.76,-0.336 -1.137,-0.504 z"
   id="path19"
   inkscape:connector-curvature="0"
   style="fill:#ffffff;fill-rule:evenodd" />
			<path
   i:knockout="Off"
   clip-rule="evenodd"
   d="m 83.21,66.115 c -1.722,-2.583 -3.675,-5.187 -6.93,-5.88 -2.31,-0.483 -5.502,0.294 -7.288,1.869 -2.478,2.205 -3.213,4.957 -2.541,8.169 0.672,3.36 2.667,5.565 5.104,7.477 0.441,-0.798 0.924,-1.575 1.491,-2.352 2.687,-3.781 6.111,-7.099 10.164,-9.283 z"
   id="path21"
   inkscape:connector-curvature="0"
   style="fill-rule:evenodd" />
			
			
			
			
			<path
   i:knockout="Off"
   clip-rule="evenodd"
   d="m 71.386,96.882 c -1.449,2.079 -2.562,3.948 -3.402,6.531 -1.471,4.474 -2.122,8.674 -1.198,13.378 1.113,5.713 3.655,9.367 7.918,13.21 2.772,2.499 6.363,4.704 10.123,5.229 3.381,0.483 6.49,-1.512 6.49,-5.146 0,-2.604 -2.164,-4.788 -2.374,-7.351 -0.315,-3.717 1.701,-5.649 5.544,-5.397 2.604,0.189 4.747,1.765 5.061,4.516 0.252,2.227 -0.504,3.822 -1.974,5.46 -1.722,1.869 -4.579,3.613 -4.201,6.574 0.399,3.023 4.369,4.62 6.952,4.893 6.007,0.673 11.929,-2.247 16.549,-5.838 3.844,-3.003 6.279,-7.035 7.834,-11.551 1.68,-4.956 2.394,-11.719 2.394,-16.927 0,-5.881 -0.966,-12.265 -3.171,-17.747 -1.617,-4.011 -4.137,-6.888 -6.931,-9.829 -0.126,0.42 -0.252,0.819 -0.462,1.197 -0.126,0.231 -0.378,0.273 -0.65,0.273 0.168,0.483 0.336,0.966 0.482,1.471 0.567,1.911 1.071,3.843 1.387,5.817 0.504,3.234 -0.252,6.363 -1.785,9.262 -2.92,5.544 -6.49,8.967 -11.824,12.202 -2.415,1.471 -5.082,2.5 -7.666,3.654 -2.625,1.155 -4.578,2.017 -7.498,1.471 -3.822,-0.735 -7.393,-2.982 -10.144,-5.713 -2.833,-2.834 -5.606,-6.005 -7.454,-9.639 z"
   id="path31"
   inkscape:connector-curvature="0"
   style="fill-rule:evenodd" />
			<path
   i:knockout="Off"
   clip-rule="evenodd"
   d="m 123.28,124.835 c 2.878,-0.441 5.188,-0.945 7.54,-3.591 4.074,-4.579 5.062,-8.128 5.712,-14.177 0.315,-2.856 0.273,-5.565 -0.063,-8.128 -0.336,1.135 -0.693,2.017 -1.533,3.109 -1.47,1.932 -4.578,3.821 -7.099,3.023 -0.398,-0.126 -0.608,-0.42 -0.735,-0.756 0,0.042 0,0.084 0,0.147 0,5.208 -0.714,11.971 -2.394,16.927 -0.398,1.177 -0.882,2.333 -1.428,3.446 z"
   id="path33"
   inkscape:connector-curvature="0"
   style="fill-rule:evenodd" />
			<path
   i:knockout="Off"
   clip-rule="evenodd"
   d="m 136.47,98.939 c -1.029,-7.812 -4.872,-14.385 -10.438,-20.623 -2.374,-2.667 -4.579,-4.621 -7.162,-6.532 -0.398,1.176 -0.966,2.374 -1.428,3.612 -0.188,0.483 -0.315,0.987 -0.441,1.491 2.794,2.94 5.313,5.817 6.931,9.829 2.185,5.439 3.15,11.761 3.171,17.599 0.127,0.336 0.337,0.63 0.735,0.756 2.521,0.798 5.629,-1.092 7.099,-3.023 0.839,-1.092 1.197,-1.974 1.533,-3.109 z"
   id="path35"
   inkscape:connector-curvature="0"
   style="fill:#ffffff;fill-rule:evenodd" />
			<path
   i:knockout="Off"
   clip-rule="evenodd"
   d="m 93.984,89.595 c -0.315,1.05 -0.483,2.184 -0.063,3.234 0.609,1.449 1.47,2.542 2.268,3.864 0.588,1.029 0.84,2.31 1.407,3.234 0.588,0.945 1.533,1.303 2.542,1.365 1.7,0.063 2.771,-1.722 3.401,-3.065 0.735,-1.576 1.008,-3.529 0.735,-4.894 -0.608,-2.856 -3.234,-6.133 -6.091,-6.973 -2.078,-0.609 -3.674,1.491 -4.199,3.235 z M 80.417,99.738 c -1.785,0.651 -3.654,-2.437 -3.822,-3.822 -0.441,-3.402 1.176,-8.148 4.389,-9.829 2.709,-1.386 3.381,1.449 3.885,3.381 0.399,1.575 0.63,2.563 -0.315,4.074 -0.84,1.302 -1.785,2.5 -2.52,3.865 -0.441,0.798 -0.651,1.974 -1.617,2.331 z m 4.179,4.704 c 0.378,-0.189 1.092,0.021 1.47,0.168 1.492,0.546 2.919,0.777 4.831,0.651 0.567,-0.042 1.47,-0.357 2.016,-0.084 0.42,0.21 0.714,0.692 0.609,1.155 -0.21,0.986 -1.953,0.902 -2.667,0.86 -0.567,-0.042 -0.819,0.042 -0.84,0.609 -0.042,0.462 0.105,1.05 -0.231,1.428 -0.188,0.21 -0.756,0.21 -0.966,0.084 -0.588,-0.356 -0.966,-1.134 -1.407,-1.658 -0.336,-0.441 -0.735,-1.072 -1.302,-1.198 -0.609,-0.146 -1.47,0.085 -1.848,-0.734 -0.253,-0.525 -0.211,-0.987 0.335,-1.281 z"
   id="path37"
   inkscape:connector-curvature="0"
   style="fill-rule:evenodd" />
			<path
   i:knockout="Off"
   clip-rule="evenodd"
   d="m 80.438,92.346 c 0.672,0 1.218,0.546 1.218,1.218 0,0.672 -0.546,1.218 -1.218,1.218 -0.672,0 -1.218,-0.546 -1.218,-1.218 0,-0.672 0.546,-1.218 1.218,-1.218 z m 18.292,0.672 c 0.672,0 1.218,0.567 1.218,1.239 0,0.672 -0.546,1.218 -1.218,1.218 -0.673,0 -1.219,-0.546 -1.219,-1.218 0,-0.672 0.547,-1.239 1.219,-1.239 z"
   id="path39"
   inkscape:connector-curvature="0"
   style="fill:#ffffff;fill-rule:evenodd" />
			
		</g>
	</g>
</svg>